<svg xmlns="http://www.w3.org/2000/svg" shape-rendering="geometricPrecision" text-rendering="geometricPrecision" image-rendering="optimizeQuality" fill-rule="evenodd" clip-rule="evenodd" viewBox="0 0 454 512.18"><path  fill="#ffff" d="M17.86 27.54H44.8c2.12 0 3.86 1.73 3.86 3.85v253.67l-.68.67c-12.21 12.21-18.19 26.59-19.4 41.65-1.24 15.46 2.88 31.15 10.52 45.37 2.39 4.45 5.23 8.86 8.41 13.13l1.15 1.52v108.78h55.01v-70.95c7.18 1.8 14.49 2.55 21.76 2.06 4.37-.29 8.68-1.01 12.88-2.19v71.08h55.01V380.97l34.64-34.65v149.86h11.94c1.14 0 2.08.93 2.08 2.07v11.85c0 1.15-.94 2.08-2.08 2.08H2.08c-1.15 0-2.08-.93-2.08-2.08v-11.85c0-1.14.93-2.07 2.08-2.07h11.93V31.38c0-2.11 1.73-3.84 3.85-3.84zm295.83 73.63c3.67 18.02 21.33 34.93 38.66 38.64 2.41 4.51 6.26 9.05 11.31 14.1.95.94 1.43 2.22 1.43 3.5 0 1.2-.42 2.39-1.24 3.32L140.27 384.3c-10.94 10.93-26.53 9.6-40.7 1.82-5.98-3.28-11.71-7.69-16.77-12.82-5.07-5.14-9.48-11-12.8-17.17-8.32-15.5-9.7-32.99 2.85-45.54L293.09 90.35c.95-.96 2.23-1.43 3.5-1.43 1.28 0 2.55.47 3.5 1.43 4.82 4.82 9.23 8.47 13.6 10.82zm38.04 170.53c17.57 0 33.5 7.13 45.02 18.66 11.53 11.51 18.67 27.44 18.67 45.03 0 17.58-7.14 33.51-18.66 45.03l-.21.19c-11.52 11.41-27.36 18.46-44.82 18.46-6.94 0-13.61-1.11-19.86-3.16-.27-.06-.52-.15-.77-.26a63.634 63.634 0 0 1-24.39-15.24c-11.53-11.51-18.67-27.44-18.67-45.02 0-17.57 7.13-33.49 18.66-45.02l.02-.03c11.53-11.52 27.45-18.64 45.01-18.64zm-17.71 9.97c-.06.26-.14.52-.25.76l-1.48 3.27a3.574 3.574 0 0 1-4.72 1.78 3.54 3.54 0 0 1-1.96-2.26 56.639 56.639 0 0 0-13.86 10.17c-10.24 10.24-16.56 24.37-16.56 40 0 15.61 6.33 29.74 16.56 39.97.44.44.88.87 1.33 1.29.27-.14.55-.25.85-.32 1.91-.47 3.85.7 4.31 2.61.13.49.29 1.01.48 1.52.15.39.31.79.49 1.19 1.9 1.33 3.87 2.55 5.92 3.64-6.22-15.69-8.04-37.14-4.91-57.63 2.76-17.99 9.35-35.38 20.16-47.68-2.17.44-4.3 1.01-6.36 1.69zm-27.8 76.75c0-1.97 1.6-3.57 3.57-3.57 1.97 0 3.58 1.6 3.58 3.57 0 .94.08 2.04.21 3.09.14 1.08.35 2.16.58 3.04.5 1.9-.64 3.86-2.54 4.35-1.9.5-3.85-.63-4.35-2.53-.3-1.15-.56-2.54-.75-3.93-.19-1.47-.3-2.91-.3-4.02zm-1.26-21.37c.17-1.96 1.91-3.4 3.86-3.22 1.96.17 3.4 1.91 3.22 3.86-.03.44 0 1.53.08 2.78.09 1.5.25 3.14.4 4.25a3.56 3.56 0 0 1-3.06 4 3.56 3.56 0 0 1-4-3.05c-.18-1.29-.35-3.12-.46-4.76-.08-1.53-.12-2.98-.04-3.86zm3.64-22.5c.53-1.89 2.5-3 4.4-2.47 1.89.53 3 2.5 2.46 4.4-.14.52-.36 1.54-.57 2.68l-.71 4.15c-.29 1.95-2.1 3.3-4.05 3.02-1.95-.29-3.3-2.1-3.02-4.05l.77-4.45c.26-1.34.53-2.59.72-3.28zm8.03-20.02a3.574 3.574 0 0 1 4.72-1.78 3.57 3.57 0 0 1 1.78 4.72l-2.71 5.98a3.574 3.574 0 0 1-4.72 1.78c-1.79-.81-2.59-2.92-1.79-4.71l2.72-5.99zm26.7 96.78c.27-1.47 1.45-2.67 3-2.88a3.574 3.574 0 0 1 4.04 3.03l.09.45 1.27.02c15.53 0 29.6-6.26 39.81-16.38l.17-.19c10.23-10.23 16.56-24.36 16.56-39.97s-6.33-29.75-16.56-39.99a56.357 56.357 0 0 0-26.8-15.01l-.51.88a3.555 3.555 0 0 1-4.86 1.31 3.549 3.549 0 0 1-1.77-3.41c-1.97-.21-3.96-.33-5.99-.33-13.45 10.87-21.43 29.9-24.49 49.89-3.46 22.6-.64 46.22 7.66 60.67 2.71.84 5.51 1.48 8.38 1.91zm-8.98-17.54c-.29-1.95 1.05-3.78 3-4.07a3.585 3.585 0 0 1 4.07 3c.11.76.33 1.62.6 2.49.33 1.03.72 2.03 1.12 2.9.82 1.78.04 3.9-1.75 4.73-1.78.82-3.9.04-4.72-1.75-.55-1.18-1.06-2.48-1.46-3.73-.38-1.2-.68-2.43-.86-3.57zm-2.91-22.62a3.57 3.57 0 0 1 3.88-3.21c1.96.18 3.39 1.93 3.21 3.88-.08.87-.11 1.98-.07 3.11.03 1.07.13 2.16.28 3.06.32 1.94-.99 3.78-2.93 4.1-1.94.33-3.78-.99-4.1-2.93-.2-1.15-.32-2.57-.37-3.98-.04-1.43-.01-2.86.1-4.03zm.8-21.41c.36-1.94 2.23-3.2 4.17-2.84 1.93.37 3.2 2.24 2.83 4.18-.09.48-.17 1.55-.21 2.75-.05 1.5-.05 3.15-.01 4.28.07 1.96-1.47 3.62-3.43 3.68a3.555 3.555 0 0 1-3.68-3.43c-.05-1.27-.05-3.11.01-4.77.05-1.57.16-3.04.32-3.85zm5.8-22.04a3.574 3.574 0 0 1 4.62-2.03c1.83.72 2.74 2.79 2.03 4.62-.2.51-.51 1.5-.84 2.6l-1.11 4.08c-.47 1.91-2.41 3.07-4.32 2.6a3.575 3.575 0 0 1-2.6-4.33l1.2-4.36c.38-1.31.76-2.52 1.02-3.18zm9.94-19.14a3.553 3.553 0 0 1 4.86-1.31 3.55 3.55 0 0 1 1.31 4.85l-3.28 5.7a3.564 3.564 0 0 1-4.86 1.31 3.555 3.555 0 0 1-1.31-4.86l3.28-5.69zm-58.78-92.48a5.233 5.233 0 0 1 7.38 0c2.04 2.04 2.04 5.35 0 7.38L145.89 354.15c-2.04 2.04-5.35 2.04-7.38 0-2.04-2.03-2.04-5.34 0-7.38L289.2 196.08zM425.51 2.03l26.46 26.46a6.933 6.933 0 0 1 2.03 4.89c0 1.49-.49 3-1.49 4.27l-.53.62-25.53 25.53a6.897 6.897 0 0 1-4.9 2.03c-1.08 0-2.18-.27-3.18-.79-4.56 4.47-9.75 9.41-15.04 14.46-13.64 12.99-28.06 26.73-38.48 39.16-4.22 5.03-5.61 9.01-4.72 12.74 1.03 4.31 4.89 9.12 10.9 15.13 3 3.02 4.5 6.96 4.5 10.88 0 3.78-1.39 7.57-4.17 10.53L147.65 391.68c-14.81 14.8-35.04 13.48-53.09 3.57-6.85-3.76-13.4-8.8-19.18-14.65-5.75-5.84-10.76-12.51-14.55-19.54-10.37-19.31-11.77-41.44 4.64-57.85L285.71 82.97c3-3 6.95-4.49 10.88-4.49 3.94 0 7.89 1.49 10.88 4.49 5.87 5.86 10.67 9.54 15.02 10.55 3.81.87 7.8-.45 12.66-4.36 12.23-9.82 26.72-25.08 40.05-39.13 4.85-5.12 9.57-10.09 13.76-14.39-.52-1-.79-2.1-.79-3.19 0-1.51.5-3.02 1.5-4.28l.52-.61 25.54-25.53A6.968 6.968 0 0 1 420.62 0c1.51 0 3.02.51 4.27 1.5l.62.53zM53.72 9.34h43.03c2.44 0 4.44 2 4.44 4.44v.16h15.08c.75 0 1.4.63 1.4 1.41v6.69c0 .77-.63 1.4-1.4 1.4h-15.08v.17c0 2.44-2 4.44-4.44 4.44H53.72c-2.44 0-4.44-2-4.44-4.44v-.17H33.5c-.77 0-1.41-.63-1.41-1.4v-6.69c0-.78.63-1.41 1.41-1.41h15.78v-.16c0-2.44 2-4.44 4.44-4.44zm70.31 4.6h15.07v-.16c0-2.44 2-4.44 4.44-4.44h43.03c2.45 0 4.44 2 4.44 4.44v.16h15.79c.75 0 1.4.63 1.4 1.41v6.69c0 .77-.63 1.4-1.4 1.4h-15.79v.17a4.45 4.45 0 0 1-4.44 4.44h-43.03c-2.44 0-4.44-2-4.44-4.44v-.17h-15.07c-.77 0-1.41-.63-1.41-1.4v-6.69c0-.78.63-1.41 1.41-1.41zm73.14 13.6h26.94c2.12 0 3.85 1.73 3.85 3.85v75.53a38.251 38.251 0 0 0-6.17 5l-28.47 28.47V31.38c0-2.11 1.73-3.84 3.85-3.84zm-89.66 0h26.94a3.86 3.86 0 0 1 3.86 3.85V195.4l-34.64 34.65V31.38c0-2.11 1.73-3.84 3.84-3.84z"/></svg>